<svg xmlns="http://www.w3.org/2000/svg" width="141" height="58" viewBox="0 0 141 58">
    <g fill="none" fill-rule="evenodd">
        <path fill="#222E42" d="M138.829 20.23l-4.458 12.373-2.959.006 4.799-13.321c4.355-12.088 1.719-16.506-7.238-16.506-8.163 0-13.631 3.953-18.952 9.631-2.007-6.127-3.55-9.631-10.919-9.631-6.196 0-12.185 2.569-17.632 7.871l-2.28-1.467 1.91-5.302H63.151a230.086 230.086 0 0 1-3.673 11.08l-2.67-.756c.746-3.557.367-5.765-1.263-7.439-2.26-2.319-7.485-3.987-15.98-3.987-12.468 0-21.127 4.23-25.582 11.638h14.626c1.47-2.897 3.666-4.317 6.857-4.317 6.691 0 3.617 6.422 2.216 10.311h-1.621c-19.063 0-28.16 4.088-32.212 15.336-2.946 8.176.244 12.557 8.109 12.557 7.293 0 11.151-2.201 15.925-6.082l-.155.243-2.079 4.961c-4.065 2.519-8.54 3.658-13.691 3.658-9.965 0-14.266-6.456-10.727-16.279 4.655-12.922 15.35-17.126 34.495-17.174.255-.705 1.488-3.687 1.129-4.444-.351-.317-.958-.306-1.389-.306-3.077 0-3.983 1.798-5.043 4.316H9.479C15.503 4.364 25.714.001 39.565.001c5.66 0 16.766.662 19.659 7.312a498.11 498.11 0 0 1 1.875-6.21h23.96l-1.496 4.155C88.386 1.779 93.629.001 99.102.001c6.08 0 9.805 2.259 12.043 7.257 5.064-4.695 11.288-7.257 17.828-7.257 11.997 0 14.435 7.521 9.856 20.229zM31.87 23.5h4.829c-1.842 5.113-3.568 13.066-10.648 13.066-8.201 0-5.4-13.066 5.819-13.066zm.87 2.78h-.87c-3.959 0-6.427 1.677-7.444 4.499-.836 2.32-.062 3.007 1.625 3.007 4.208 0 5.536-4.305 6.689-7.506zm50.994-12.963c4.575 0 4.75 3.538 3.434 7.188l-4.397 12.207-2.96.006 4.739-13.155c.657-1.823 1.455-3.465-.816-3.465-1.68 0-3.545 1.328-4.588 4.223l-4.47 12.408-2.96.006 4.813-13.355c1.272-3.533 3.922-6.063 7.205-6.063zm29.779 0c4.575 0 4.749 3.538 3.434 7.188l-4.375 12.144-2.96.006 4.717-13.092c.658-1.824 1.454-3.465-.816-3.465-1.685 0-3.388 1.149-4.463 4.132l-4.48 12.436-2.96.006 4.822-13.384c1.308-3.63 3.802-5.971 7.081-5.971z"/>
        <path fill="#FF7339" d="M121.105 41.088c.973-2.071 3.132-3.22 6.232-3.22 1.909 0 3.192.369 3.791.984.719.738.499 1.805-.099 3.467l-2.195 6.091h-4.331l.246-1.026c-1.036.883-2.182 1.273-3.579 1.273-1.99 0-2.827-1.211-2.103-3.221.976-2.707 3.197-3.63 7.487-3.63l.373-.636c.266-.738.13-1.046-.506-1.046s-1.048.287-1.333.964h-3.983zm4.861 2.748h-.636c-.986 0-1.675.431-1.955 1.21-.244.677.018 1.088.655 1.088.759 0 1.286-.493 1.648-1.498l.288-.8zm-9.188-4.615l.719-.513c.669-.492 1.144-.84 2.006-.84.431 0 .784.102 1.059.307l-1.389 3.856c-.658-.225-1.216-.328-1.668-.328-1.006 0-1.665.636-2.175 2.051l-1.678 4.656h-4.948l3.711-10.296h4.762l-.399 1.107zm-18.377-1.107h4.844l-2.29 6.358c-.296.821-.149 1.21.488 1.21.553 0 1.058-.431 1.316-1.148l2.313-6.42h4.824l-3.2 8.881c-.051.143-.18.616-.427 1.415h-4.68l.583-1.62c-1.264 1.231-2.704 1.867-4.182 1.867-2.34 0-2.907-1.334-1.909-4.103l2.32-6.44zm-11.365 3.015l1.087-3.015h1.314l.642-1.785 5.369-1.682-1.249 3.467h2.279l-1.086 3.015h-2.279l-1.138 3.159c-.244.676-.014 1.005.705 1.005.246 0 .617-.062 1.093-.185l-1.101 3.056c-1.391.329-2.538.493-3.482.493-2.361 0-3.168-1.067-2.428-3.118l1.588-4.41h-1.314zm-9.457 7.281l3.71-10.296h4.947l-3.71 10.296h-4.947zm-14.034 0l3.199-8.881c.045-.123.174-.595.428-1.415h4.681l-.577 1.6c1.265-1.231 2.697-1.846 4.175-1.846 2.34 0 2.907 1.333 1.909 4.102l-2.321 6.44h-4.844l2.299-6.379c.295-.821.141-1.189-.496-1.189-.553 0-1.058.43-1.316 1.148l-2.313 6.42h-4.824zm-1.772-9.189l.718-.513c.67-.492 1.145-.84 2.007-.84.431 0 .784.102 1.059.307l-1.389 3.856c-.658-.225-1.216-.328-1.668-.328-1.006 0-1.666.636-2.175 2.051l-1.678 4.656h-4.948l3.71-10.296h4.763l-.399 1.107zm-18.377-1.107h4.844l-2.291 6.358c-.295.821-.148 1.21.488 1.21.554 0 1.058-.431 1.317-1.148l2.313-6.42h4.824l-3.2 8.881c-.051.143-.18.616-.427 1.415h-4.68l.583-1.62c-1.265 1.231-2.705 1.867-4.183 1.867-2.34 0-2.907-1.334-1.909-4.103l2.321-6.44zm1.157-8.284l-1.628 4.173c-2.111-.534-2.817 2.752-3.091 3.511l-.252.784h1.847l-1.086 3.015h-1.847l-5.807 16.684h-4.743l5.808-16.684H30.33l1.087-3.015h3.341l1.863-5.084c.857-2.379 2.745-3.63 5.476-3.63.697 0 1.509.082 2.456.246zm57.181 5.131h7.277l-.725 1.703h-7.276l.724-1.703z"/>
    </g>
</svg>
