<?xml version="1.0" encoding="UTF-8"?>
<svg width="106px" height="34px" viewBox="0 0 106 34" version="1.1" xmlns="http://www.w3.org/2000/svg" xmlns:xlink="http://www.w3.org/1999/xlink">
    <!-- Generator: Sketch 53.1 (72631) - https://sketchapp.com -->
    <title>Kates-paltes-logo</title>
    <desc>Created with Sketch.</desc>
    <defs>
        <polygon id="path-1" points="0.1245 0.1727 71.116 0.1727 71.116 13.9247 0.1245 13.9247"></polygon>
    </defs>
    <g id="Symbols" stroke="none" stroke-width="1" fill="none" fill-rule="evenodd">
        <g id="Kates-pates-hederis-PE-2" transform="translate(-254.000000, -19.000000)">
            <g id="Perc-eko-hederis-PE-2">
                <g id="Kates-plates-logo" transform="translate(234.000000, 0.000000)">
                    <g transform="translate(20.000000, 19.000000)" id="Kates-paltes-logo">
                        <g>
                            <path d="M48.3804,12.7391 L46.9404,15.5471 L48.3804,15.5471 L48.3804,12.7391 Z M34.4844,15.5471 L36.9324,2.2991 L41.6844,2.2991 L40.6764,7.6991 L44.2044,2.2991 L48.3804,2.2991 L48.3804,4.2431 L44.8524,8.9951 L47.5164,15.5471 L42.3324,15.5471 L40.3164,9.7151 L39.2364,15.5471 L34.4844,15.5471 Z M54.9324,2.2991 L53.7804,2.2991 L48.3804,12.7391 L48.3804,15.5471 L52.0524,15.5471 L52.7724,13.7471 L54.9324,13.7471 L54.9324,10.6511 L54.0684,10.6511 L54.9324,8.6351 L54.9324,2.2991 Z M48.3804,2.2991 L49.8204,2.2991 L48.3804,4.2431 L48.3804,2.2991 Z M54.9324,13.7471 L54.9324,10.6511 L55.7964,10.6511 L55.7244,9.2111 C55.6524,8.2751 55.6524,7.6991 55.6524,7.4831 L55.6524,6.5471 C55.4364,7.4111 55.2204,7.9871 55.0044,8.4191 L54.9324,8.6351 L54.9324,2.2991 L59.0364,2.2991 L60.7644,15.5471 L56.0844,15.5471 L55.9404,13.7471 L54.9324,13.7471 Z M72.7884,13.7471 L72.4284,15.5471 L72.7884,15.5471 L72.7884,13.7471 Z M72.7884,2.2991 L72.7884,4.0991 L72.3564,6.3311 L69.6204,6.3311 L67.9644,15.5471 L63.1404,15.5471 L64.7964,6.3311 L61.9884,6.3311 L62.7804,2.2991 L72.7884,2.2991 Z M72.7884,4.0991 L73.1484,2.2991 L72.7884,2.2991 L72.7884,4.0991 Z M83.6604,13.0271 L83.3724,13.4591 C83.4444,13.5311 83.5884,13.6031 83.6604,13.6751 L83.6604,13.0271 Z M83.6604,2.2991 L83.6604,3.9551 L83.3004,5.8991 L78.9804,5.8991 L78.7644,7.1951 L82.7964,7.1951 L82.2204,10.5071 L78.1884,10.5071 L77.9004,11.9471 L82.5804,11.9471 L81.9324,15.5471 L72.7884,15.5471 L72.7884,13.7471 L74.8764,2.2991 L83.6604,2.2991 Z M83.6604,3.9551 L83.9484,2.2991 L83.6604,2.2991 L83.6604,3.9551 Z M83.6604,13.6751 L83.6604,13.0271 L85.7484,10.0031 C86.8284,11.2991 87.9804,12.0191 89.2044,12.0191 C89.7804,12.0191 90.0684,11.8031 90.0684,11.4431 C90.0684,11.2991 89.9244,11.1551 89.7084,11.0111 C89.6364,10.9391 89.2764,10.7951 88.7004,10.5791 C86.5404,9.6431 85.4604,8.3471 85.4604,6.6911 C85.4604,5.3231 85.9644,4.2431 86.9004,3.3791 C87.9084,2.4431 89.2764,2.0111 90.9324,2.0111 C92.8044,2.0111 94.3884,2.5871 95.6844,3.6671 L93.8124,6.9071 C92.8044,5.9711 91.8684,5.5391 91.1484,5.5391 C90.6444,5.5391 90.4284,5.7551 90.4284,6.1151 C90.4284,6.3311 90.5724,6.5471 90.8604,6.6911 C90.8604,6.6911 91.2924,6.9071 92.0844,7.2671 C93.0924,7.6991 93.8124,8.2031 94.2444,8.7791 C94.6764,9.3551 94.9644,10.0751 94.9644,11.0111 C94.9644,12.3791 94.3884,13.5311 93.3804,14.4671 C92.3004,15.4031 90.9324,15.8351 89.2764,15.8351 C87.2604,15.8351 85.3884,15.1151 83.6604,13.6751 L83.6604,13.6751 Z" id="Fill-1" fill="#231F20"></path>
                            <g id="Group-5" transform="translate(34.000000, 18.758700)">
                                <mask id="mask-2" fill="white">
                                    <use xlink:href="#path-1"></use>
                                </mask>
                                <g id="Clip-4"></g>
                                <path d="M0.1245,13.6367 L2.5725,0.4607 L7.5405,0.4607 L7.5405,3.9167 L6.9645,3.9167 L6.7485,3.9167 L6.3165,6.1487 L6.6765,6.1487 C7.0365,6.1487 7.3245,6.1487 7.5405,6.0767 L7.5405,9.6047 L5.6685,9.6047 L4.9485,13.6367 L0.1245,13.6367 Z M13.3725,12.7007 L13.3725,13.6367 L13.1565,13.6367 L13.3725,12.7007 Z M7.5405,0.4607 L7.6845,0.4607 C10.9245,0.4607 12.7965,1.3967 13.3725,3.3407 L13.3725,6.1487 C13.0845,7.0127 12.6525,7.7327 12.0045,8.3087 C10.9245,9.1727 9.4845,9.6047 7.6125,9.6047 L7.5405,9.6047 L7.5405,6.0767 C8.3325,5.9327 8.7645,5.5007 8.7645,4.8527 C8.7645,4.3487 8.3325,3.9887 7.5405,3.9167 L7.5405,0.4607 Z M22.5885,13.1327 L22.5885,13.6367 L22.3005,13.6367 L22.5885,13.1327 Z M22.5885,9.6047 L18.7725,9.6047 L20.5005,0.4607 L15.6045,0.4607 L13.3725,12.7007 L13.3725,13.6367 L22.0845,13.6367 L22.5885,10.9727 L22.5885,9.6047 Z M13.3725,3.3407 C13.4445,3.7727 13.5165,4.2047 13.5165,4.7087 C13.5165,5.2127 13.4445,5.7167 13.3725,6.1487 L13.3725,3.3407 Z M22.5885,10.9727 L22.8765,9.6047 L22.5885,9.6047 L22.5885,10.9727 Z M30.3645,0.4607 L30.3645,6.7967 L29.5005,8.7407 L30.3645,8.7407 L30.3645,11.9087 L28.2045,11.9087 L27.4845,13.6367 L22.5885,13.6367 L22.5885,13.1327 L29.2125,0.4607 L30.3645,0.4607 Z M30.3645,11.9087 L30.3645,8.7407 L31.2285,8.7407 L31.1565,7.3727 C31.0845,6.3647 31.0845,5.7887 31.0845,5.5727 L31.0845,4.6367 C30.8685,5.5007 30.6525,6.1487 30.4365,6.5807 L30.3645,6.7967 L30.3645,0.4607 L34.4685,0.4607 L36.1965,13.6367 L31.4445,13.6367 L31.3725,11.9087 L30.3645,11.9087 Z M48.2205,11.8367 L47.8605,13.6367 L48.2205,13.6367 L48.2205,11.8367 Z M48.2205,0.4607 L48.2205,2.2607 L47.7885,4.4207 L45.0525,4.4207 L43.3965,13.6367 L38.5005,13.6367 L40.2285,4.4207 L37.4205,4.4207 L38.1405,0.4607 L48.2205,0.4607 Z M48.2205,2.2607 L48.5085,0.4607 L48.2205,0.4607 L48.2205,2.2607 Z M59.0925,11.1167 L58.8045,11.5487 C58.8765,11.6207 58.9485,11.7647 59.0925,11.8367 L59.0925,11.1167 Z M59.0925,0.4607 L59.0925,2.0447 L58.7325,3.9887 L54.4125,3.9887 L54.1965,5.2847 L58.2285,5.2847 L57.5805,8.6687 L53.5485,8.6687 L53.3325,10.0367 L58.0125,10.0367 L57.3645,13.6367 L48.2205,13.6367 L48.2205,11.8367 L50.3085,0.4607 L59.0925,0.4607 Z M59.0925,2.0447 L59.3805,0.4607 L59.0925,0.4607 L59.0925,2.0447 Z M59.0925,11.8367 L59.0925,11.1167 L61.1805,8.0927 C62.2605,9.4607 63.4125,10.1087 64.6365,10.1087 C65.2125,10.1087 65.5005,9.9647 65.5005,9.6047 C65.5005,9.3887 65.3565,9.2447 65.1405,9.1007 C65.0685,9.1007 64.7085,8.9567 64.1325,8.6687 C61.9725,7.8047 60.8925,6.5087 60.8925,4.7807 C60.8925,3.4847 61.3245,2.3327 62.3325,1.4687 C63.3405,0.6047 64.7085,0.1727 66.2925,0.1727 C68.1645,0.1727 69.7485,0.6767 71.1165,1.8287 L69.2445,5.0687 C68.1645,4.1327 67.3005,3.6287 66.5805,3.6287 C66.0765,3.6287 65.8605,3.8447 65.8605,4.2047 C65.8605,4.4927 66.0045,4.6367 66.2925,4.8527 C66.2925,4.8527 66.7245,4.9967 67.5165,5.3567 C68.5245,5.8607 69.2445,6.3647 69.6765,6.8687 C70.1085,7.4447 70.3245,8.2367 70.3245,9.1007 C70.3245,10.4687 69.8205,11.6207 68.7405,12.5567 C67.6605,13.4927 66.2925,13.9247 64.7085,13.9247 C62.6925,13.9247 60.8205,13.2767 59.0925,11.8367 L59.0925,11.8367 Z" id="Fill-3" fill="#231F20" mask="url(#mask-2)"></path>
                            </g>
                            <polygon id="Fill-6" fill="#89191C" points="6.5483 21.8114 0.6443 6.9074 15.6203 1.0754 21.4523 15.9794"></polygon>
                            <polygon id="Stroke-8" stroke="#231F20" stroke-width="0.991" points="6.5483 21.8114 0.6443 6.9074 15.6203 1.0754 21.4523 15.9794"></polygon>
                            <polygon id="Fill-10" fill="#FEFEFE" points="10.8687 6.5472 25.7727 0.6432 31.6767 15.5472 16.7007 21.4512"></polygon>
                            <polygon id="Stroke-12" stroke="#231F20" stroke-width="0.991" points="10.8687 6.5472 25.7727 0.6432 31.6767 15.5472 16.7007 21.4512"></polygon>
                            <polygon id="Fill-14" fill="#89191C" points="17.2046 32.6835 11.3726 17.7795 26.2766 11.9475 32.1086 26.8515"></polygon>
                            <polygon id="Stroke-16" stroke="#231F20" stroke-width="0.991" points="17.2046 32.6835 11.3726 17.7795 26.2766 11.9475 32.1086 26.8515"></polygon>
                            <polygon id="Fill-18" fill="#FEFEFE" points="1.1484 18.2113 16.0524 12.3073 21.9564 27.2113 6.9804 33.1153"></polygon>
                            <polygon id="Stroke-20" stroke="#231F20" stroke-width="0.991" points="1.1484 18.2113 16.0524 12.3073 21.9564 27.2113 6.9804 33.1153"></polygon>
                        </g>
                    </g>
                </g>
            </g>
        </g>
    </g>
</svg>